<svg xmlns="http://www.w3.org/2000/svg" viewBox="0 0 64 64">
  <rect x="16" y="4" width="4" height="4" fill="#60a5fa"/>
  <rect x="20" y="4" width="4" height="4" fill="#60a5fa"/>
  <rect x="16" y="8" width="4" height="4" fill="#3b82f6"/>
  <rect x="20" y="8" width="4" height="4" fill="#3b82f6"/>
  <rect x="20" y="8" width="4" height="4" fill="#60a5fa"/>
  <rect x="24" y="8" width="4" height="4" fill="#60a5fa"/>
  <rect x="20" y="12" width="4" height="4" fill="#3b82f6"/>
  <rect x="24" y="12" width="4" height="4" fill="#3b82f6"/>
  <rect x="24" y="12" width="4" height="4" fill="#60a5fa"/>
  <rect x="28" y="12" width="4" height="4" fill="#60a5fa"/>
  <rect x="24" y="16" width="4" height="4" fill="#3b82f6"/>
  <rect x="28" y="16" width="4" height="4" fill="#3b82f6"/>
  <rect x="28" y="16" width="4" height="4" fill="#60a5fa"/>
  <rect x="32" y="16" width="4" height="4" fill="#60a5fa"/>
  <rect x="28" y="20" width="4" height="4" fill="#3b82f6"/>
  <rect x="32" y="20" width="4" height="4" fill="#3b82f6"/>
  <rect x="32" y="20" width="4" height="4" fill="#60a5fa"/>
  <rect x="36" y="20" width="4" height="4" fill="#60a5fa"/>
  <rect x="32" y="24" width="4" height="4" fill="#3b82f6"/>
  <rect x="36" y="24" width="4" height="4" fill="#3b82f6"/>
  <rect x="36" y="24" width="4" height="4" fill="#60a5fa"/>
  <rect x="40" y="24" width="4" height="4" fill="#60a5fa"/>
  <rect x="36" y="28" width="4" height="4" fill="#3b82f6"/>
  <rect x="40" y="28" width="4" height="4" fill="#3b82f6"/>
  <rect x="24" y="20" width="4" height="4" fill="#94a3b8"/>
  <rect x="20" y="24" width="4" height="4" fill="#94a3b8"/>
  <rect x="16" y="28" width="4" height="4" fill="#94a3b8"/>
  <rect x="12" y="32" width="4" height="4" fill="#64748b"/>
  <rect x="8" y="36" width="4" height="4" fill="#64748b"/>
  <rect x="4" y="40" width="4" height="4" fill="#475569"/>
</svg>
